<svg width="24" height="24" viewBox="0 0 24 24" fill="none" xmlns="http://www.w3.org/2000/svg">
<g clip-path="url(#clip0_1_3)">
<path d="M15.2939 4.032L17.997 4.74937C18.0675 4.76377 18.1248 4.82138 18.141 4.8923L18.8537 7.59544C18.8729 7.6748 18.9427 7.73058 19.0239 7.73058C19.1059 7.73058 19.1749 7.6748 19.1933 7.59544L19.9071 4.8923C19.9222 4.82142 19.9798 4.76377 20.0503 4.74937L22.7538 4.032C22.8329 4.01719 22.889 3.94669 22.889 3.86545C22.889 3.78347 22.8329 3.71442 22.7538 3.69858L20.0503 2.98153C19.9798 2.96644 19.9222 2.90953 19.9071 2.83866L19.1933 0.135516C19.1749 0.0568594 19.1058 0 19.0239 0C18.9427 0 18.8729 0.0568594 18.8537 0.135516L18.141 2.83866C18.1248 2.90953 18.0676 2.96644 17.997 2.98153L15.2939 3.69858C15.2141 3.71447 15.1588 3.78352 15.1588 3.86545C15.1588 3.94669 15.2142 4.01723 15.2939 4.032Z" fill="#E1AD2F"/>
<path d="M18.0587 15.3061L16.8317 14.9808C16.7996 14.9734 16.7734 14.9483 16.7664 14.9159L16.4429 13.6889C16.4345 13.6531 16.4031 13.6276 16.3658 13.6276C16.3292 13.6276 16.2975 13.6531 16.2886 13.6889L15.9652 14.9159C15.9578 14.9483 15.932 14.9734 15.8999 14.9808L14.6733 15.3061C14.6371 15.3131 14.6116 15.3449 14.6116 15.3818C14.6116 15.4187 14.6371 15.4505 14.6733 15.4579L15.8999 15.7828C15.932 15.7894 15.9578 15.816 15.9652 15.8485L16.2886 17.0747C16.2975 17.1105 16.3292 17.136 16.3658 17.136C16.4031 17.136 16.4345 17.1105 16.4429 17.0747L16.7664 15.8485C16.7734 15.816 16.7996 15.7894 16.8317 15.7828L18.0587 15.4579C18.0942 15.4505 18.12 15.4187 18.12 15.3818C18.12 15.3449 18.0942 15.3131 18.0587 15.3061Z" fill="#E1AD2F"/>
<path d="M1.77379 6.56602L3.70523 7.07775C3.75613 7.08849 3.79645 7.1295 3.80859 7.18041L4.31737 9.11185C4.33138 9.16908 4.38126 9.2086 4.43924 9.2086C4.49756 9.2086 4.54706 9.16908 4.56074 9.11185L5.0699 7.18041C5.08063 7.1295 5.12235 7.08849 5.17293 7.07775L7.10474 6.56602C7.16123 6.55421 7.20145 6.50325 7.20145 6.44564C7.20145 6.38803 7.16123 6.33858 7.10474 6.32677L5.17293 5.81424C5.12235 5.80317 5.08063 5.76333 5.0699 5.71233L4.56074 3.77982C4.54706 3.72366 4.4976 3.68382 4.43924 3.68382C4.38131 3.68382 4.33143 3.72366 4.31737 3.77982L3.80859 5.71238C3.7964 5.76333 3.75613 5.80317 3.70523 5.81428L1.77379 6.32682C1.71618 6.33863 1.67667 6.38808 1.67667 6.44569C1.67667 6.50325 1.71618 6.55425 1.77379 6.56602Z" fill="#E1AD2F"/>
<path d="M18.5904 12.9795C18.2212 12.5475 17.6935 12.1643 17.043 11.8431H17.0437C15.7462 11.2006 13.9669 10.8074 12.0007 10.8063L11.9952 10.8066V10.8063C10.704 10.8066 9.49219 10.9761 8.44467 11.2745C7.39716 11.5728 6.51548 11.9982 5.88037 12.5151L5.88145 12.5144C5.45723 12.8592 5.14523 13.244 4.97208 13.6623C4.87308 13.8998 4.82105 14.1501 4.82142 14.4037C4.82142 14.6123 4.99055 14.7818 5.19951 14.7818C5.40853 14.7818 5.57761 14.6123 5.57761 14.4037C5.57798 14.2512 5.60681 14.1061 5.67066 13.951C5.78105 13.6823 6.00665 13.3861 6.3578 13.1018L6.35887 13.101C6.88172 12.6728 7.68 12.2769 8.65181 12.0019C9.62362 11.7246 10.7705 11.5625 11.9952 11.5628H12.0151C13.8727 11.5632 15.5509 11.9446 16.7073 12.5206L16.7085 12.521C17.2889 12.8068 17.7367 13.1428 18.0155 13.4707C18.1559 13.635 18.2555 13.7963 18.3194 13.951C18.3992 14.1442 18.62 14.2358 18.8131 14.156C19.0062 14.0762 19.0978 13.8554 19.018 13.6623C18.9194 13.4237 18.7754 13.1952 18.5904 12.9795Z" fill="#E1AD2F"/>
<path d="M22.7771 12.7484C22.6176 12.3637 22.3994 12.0059 22.1361 11.6754C21.8729 11.3453 21.5649 11.0418 21.2222 10.7627L21.2012 10.7457L21.2215 10.7627C20.1921 9.92602 18.8374 9.2865 17.2682 8.83753H17.2678C15.6971 8.39114 13.9052 8.14191 12 8.14191C10.5482 8.14191 9.16279 8.28666 7.89047 8.55286C6.61809 8.81911 5.45873 9.20677 4.45884 9.70078L4.45809 9.70116C3.45933 10.1967 2.61009 10.8 1.97981 11.5358L1.99125 11.5218L1.97943 11.5358C1.66486 11.9044 1.40493 12.3087 1.22287 12.7484C1.04048 13.1885 0.93895 13.663 0.939278 14.1515V17.9893C0.93895 18.4782 1.04048 18.953 1.22287 19.3931C1.38239 19.7778 1.60064 20.1352 1.86389 20.4657C2.12751 20.7961 2.43506 21.0993 2.77767 21.3784L2.77842 21.3788C3.80784 22.2147 5.16215 22.8557 6.73139 23.3039L6.73983 23.3058C8.30883 23.7508 10.0977 23.9996 12 24H12.0004C13.4518 23.9996 14.8372 23.8549 16.1095 23.5887C17.3819 23.3224 18.5413 22.9344 19.5412 22.4407L19.5419 22.44C20.5406 21.9444 21.3895 21.3408 22.0201 20.6056L22.0205 20.6049C22.3351 20.2372 22.5946 19.8333 22.7767 19.3931L22.7653 19.4201L22.7771 19.3931C22.9591 18.953 23.0607 18.4782 23.0607 17.9893V14.1515C23.0607 13.663 22.9591 13.1885 22.7771 12.7484ZM3.41428 19.9879C3.29798 19.8783 3.18942 19.7668 3.09272 19.6541C2.8634 19.3853 2.69133 19.1103 2.57648 18.8333C2.46164 18.5557 2.40408 18.2762 2.40408 17.9893V16.2495C2.62818 16.5261 2.89293 16.7871 3.19237 17.0316C3.26442 17.0895 3.33825 17.1468 3.41428 17.2036V19.9879ZM5.53514 21.3249C5.38931 21.2614 5.24568 21.1964 5.10792 21.1278C4.78706 20.969 4.49165 20.7995 4.22217 20.6227V17.7316C4.62426 17.9624 5.06362 18.174 5.53514 18.3645V21.3249ZM8.16145 22.1487C7.49611 22.008 6.87173 21.8318 6.29611 21.6262H6.34373V18.6595C6.5287 18.7208 6.7185 18.7787 6.91195 18.8341C7.31222 18.9479 7.7302 19.0475 8.16145 19.1343V22.1487ZM11.5957 22.5308C10.6807 22.5123 9.80123 22.4289 8.96972 22.2945V19.2757C9.80601 19.4049 10.6855 19.4806 11.5957 19.4984V22.5308ZM15.1314 22.2764C14.2704 22.42 13.3569 22.5101 12.4043 22.5286V19.5001C13.351 19.4817 14.2656 19.3994 15.1314 19.262V22.2764ZM17.7578 21.6077C17.4727 21.7111 17.1759 21.8071 16.8668 21.895C16.5685 21.9799 16.2576 22.0556 15.9393 22.125V19.1143C16.5792 18.9821 17.1877 18.8175 17.7578 18.6251V21.6077ZM19.879 20.5539C19.4965 20.8161 19.0563 21.0598 18.5656 21.2813V18.3223C18.8019 18.2244 19.0312 18.1218 19.2502 18.0136C19.4692 17.9047 19.6785 17.7906 19.879 17.6724V20.5539ZM21.5959 17.9893C21.5959 18.2761 21.5384 18.5557 21.4231 18.8333C21.2754 19.1922 21.0277 19.5493 20.6869 19.8915V17.1615H20.6389C20.9741 16.9056 21.2714 16.6327 21.5213 16.3407C21.5468 16.3108 21.5712 16.2805 21.5959 16.2502V17.9893H21.5959ZM21.4231 14.9948C21.2238 15.4793 20.8434 15.96 20.297 16.4049C19.4791 17.0725 18.2928 17.6515 16.8668 18.0565C15.4413 18.4627 13.7767 18.6971 12 18.6971C9.2932 18.6983 6.84483 18.1507 5.10797 17.2892C4.23956 16.8599 3.55129 16.3533 3.09272 15.8153C2.8634 15.5468 2.69133 15.2718 2.57648 14.9949C2.46164 14.7172 2.40408 14.4381 2.40408 14.1516C2.40408 13.8651 2.46164 13.5859 2.57648 13.3082C2.77664 12.8235 3.15618 12.3427 3.70303 11.8985C4.52128 11.2305 5.70722 10.6513 7.1332 10.2462C8.55881 9.84047 10.2237 9.60633 12 9.60633C14.7069 9.60483 17.1548 10.1528 18.8917 11.0138C19.7605 11.4429 20.4491 11.9502 20.907 12.4874C21.1366 12.7559 21.3087 13.0309 21.4232 13.3082C21.5384 13.5859 21.596 13.865 21.596 14.1515C21.596 14.4381 21.5384 14.7172 21.4231 14.9948Z" fill="#E1AD2F"/>
</g>
<defs>
<clipPath id="clip0_1_3">
<rect width="24" height="24" fill="white"/>
</clipPath>
</defs>
</svg>
